HIERARCHY
ROOT Hips
{
  OFFSET 5.72205e-005 65.662 3.42586
  CHANNELS 6 Xposition Yposition Zposition Zrotation Xrotation Yrotation
  JOINT Chest
  {
    OFFSET 0 8.7983 -4.7612
    CHANNELS 6 Xposition Yposition Zposition Zrotation Xrotation Yrotation
    JOINT Chest2
    {
      OFFSET 0 8.0291 0.4195
      CHANNELS 6 Xposition Yposition Zposition Zrotation Xrotation Yrotation
      JOINT Chest3
      {
        OFFSET 0 9.9351 -2.2114
        CHANNELS 6 Xposition Yposition Zposition Zrotation Xrotation Yrotation
        JOINT Neck
        {
          OFFSET 0 22.3885 -0.4656
          CHANNELS 6 Xposition Yposition Zposition Zrotation Xrotation Yrotation
          JOINT Head
          {
            OFFSET -0.0001 12.643 3.4389
            CHANNELS 6 Xposition Yposition Zposition Zrotation Xrotation Yrotation
            End Site
            {
              OFFSET 0.0001 17.6655 0.5274
            }
          }
        }
        JOINT LeftCollar
        {
          OFFSET 2.2603 21.606 7.4023
          CHANNELS 6 Xposition Yposition Zposition Zrotation Xrotation Yrotation
          JOINT LeftShoulder
          {
            OFFSET 13.5163 -1.1332 -5.0146
            CHANNELS 6 Xposition Yposition Zposition Zrotation Xrotation Yrotation
            JOINT LeftElbow
            {
              OFFSET -0.0995 -28.05 -0.2431
              CHANNELS 6 Xposition Yposition Zposition Zrotation Xrotation Yrotation
              JOINT LeftWrist
              {
                OFFSET 0.0679 -23.3996 -0.1402
                CHANNELS 6 Xposition Yposition Zposition Zrotation Xrotation Yrotation
                JOINT LeftFinger1
                {
                  OFFSET 0.7932 -9.069 2.5189
                  CHANNELS 6 Xposition Yposition Zposition Zrotation Xrotation Yrotation
                  JOINT LeftFinger11
                  {
                    OFFSET -0.8272 -3.3923 0.5977
                    CHANNELS 6 Xposition Yposition Zposition Zrotation Xrotation Yrotation
                    JOINT LeftFinger12
                    {
                      OFFSET -0.5649 -2.3158 0.4082
                      CHANNELS 6 Xposition Yposition Zposition Zrotation Xrotation Yrotation
                      End Site
                      {
                        OFFSET -0.4919 -1.6479 0.2673
                      }
                    }
                  }
                }
                JOINT LeftFinger2
                {
                  OFFSET 0.9159 -9.2044 0.2193
                  CHANNELS 6 Xposition Yposition Zposition Zrotation Xrotation Yrotation
                  JOINT LeftFinger21
                  {
                    OFFSET 0.0117 -4.1944 -0.0248
                    CHANNELS 6 Xposition Yposition Zposition Zrotation Xrotation Yrotation
                    JOINT LeftFinger22
                    {
                      OFFSET 0.0071 -2.3249 -0.0142
                      CHANNELS 6 Xposition Yposition Zposition Zrotation Xrotation Yrotation
                      End Site
                      {
                        OFFSET -0.1475 -2.0882 0.0028
                      }
                    }
                  }
                }
                JOINT LeftFinger3
                {
                  OFFSET 0.6113 -8.7231 -2.0637
                  CHANNELS 6 Xposition Yposition Zposition Zrotation Xrotation Yrotation
                  JOINT LeftFinger31
                  {
                    OFFSET -0.1927 -3.8059 -0.2383
                    CHANNELS 6 Xposition Yposition Zposition Zrotation Xrotation Yrotation
                    JOINT LeftFinger32
                    {
                      OFFSET -0.1091 -2.1688 -0.1362
                      CHANNELS 6 Xposition Yposition Zposition Zrotation Xrotation Yrotation
                      End Site
                      {
                        OFFSET -0.2358 -1.9176 -0.0906
                      }
                    }
                  }
                }
                JOINT LeftFinger4
                {
                  OFFSET -0.6151 -8.0947 -3.5641
                  CHANNELS 6 Xposition Yposition Zposition Zrotation Xrotation Yrotation
                  JOINT LeftFinger41
                  {
                    OFFSET -0.4882 -2.341 -0.6462
                    CHANNELS 6 Xposition Yposition Zposition Zrotation Xrotation Yrotation
                    JOINT LeftFinger42
                    {
                      OFFSET -0.3575 -1.7167 -0.4742
                      CHANNELS 6 Xposition Yposition Zposition Zrotation Xrotation Yrotation
                      End Site
                      {
                        OFFSET -0.4187 -1.5237 -0.3496
                      }
                    }
                  }
                }
                JOINT LeftFinger0
                {
                  OFFSET -1.42 -1.8761 1.4223
                  CHANNELS 6 Xposition Yposition Zposition Zrotation Xrotation Yrotation
                  JOINT LeftFinger01
                  {
                    OFFSET -1.1471 -3.4929 2.6334
                    CHANNELS 6 Xposition Yposition Zposition Zrotation Xrotation Yrotation
                    JOINT LeftFinger02
                    {
                      OFFSET -0.823 -2.3 1.6571
                      CHANNELS 6 Xposition Yposition Zposition Zrotation Xrotation Yrotation
                      End Site
                      {
                        OFFSET -0.5822 -1.6914 1.1582
                      }
                    }
                  }
                }
              }
            }
          }
        }
        JOINT RightCollar
        {
          OFFSET -2.2603 21.606 7.4023
          CHANNELS 6 Xposition Yposition Zposition Zrotation Xrotation Yrotation
          JOINT RightShoulder
          {
            OFFSET -13.5187 -1.1334 -5.0155
            CHANNELS 6 Xposition Yposition Zposition Zrotation Xrotation Yrotation
            JOINT RightElbow
            {
              OFFSET 0.0994 -28.0499 -0.2431
              CHANNELS 6 Xposition Yposition Zposition Zrotation Xrotation Yrotation
              JOINT RightWrist
              {
                OFFSET -0.0679 -23.3996 -0.1402
                CHANNELS 6 Xposition Yposition Zposition Zrotation Xrotation Yrotation
                JOINT RightFinger1
                {
                  OFFSET -0.7932 -9.0691 2.5189
                  CHANNELS 6 Xposition Yposition Zposition Zrotation Xrotation Yrotation
                  JOINT RightFinger11
                  {
                    OFFSET 0.8272 -3.3923 0.5977
                    CHANNELS 6 Xposition Yposition Zposition Zrotation Xrotation Yrotation
                    JOINT RightFinger12
                    {
                      OFFSET 0.565 -2.3158 0.4082
                      CHANNELS 6 Xposition Yposition Zposition Zrotation Xrotation Yrotation
                      End Site
                      {
                        OFFSET 0.4919 -1.6479 0.2673
                      }
                    }
                  }
                }
                JOINT RightFinger2
                {
                  OFFSET -0.916 -9.2044 0.2193
                  CHANNELS 6 Xposition Yposition Zposition Zrotation Xrotation Yrotation
                  JOINT RightFinger21
                  {
                    OFFSET -0.0117 -4.1944 -0.0248
                    CHANNELS 6 Xposition Yposition Zposition Zrotation Xrotation Yrotation
                    JOINT RightFinger22
                    {
                      OFFSET -0.0071 -2.3249 -0.0142
                      CHANNELS 6 Xposition Yposition Zposition Zrotation Xrotation Yrotation
                      End Site
                      {
                        OFFSET 0.1475 -2.0882 0.0028
                      }
                    }
                  }
                }
                JOINT RightFinger3
                {
                  OFFSET -0.6113 -8.7231 -2.0637
                  CHANNELS 6 Xposition Yposition Zposition Zrotation Xrotation Yrotation
                  JOINT RightFinger31
                  {
                    OFFSET 0.1927 -3.8059 -0.2383
                    CHANNELS 6 Xposition Yposition Zposition Zrotation Xrotation Yrotation
                    JOINT RightFinger32
                    {
                      OFFSET 0.1091 -2.1688 -0.1362
                      CHANNELS 6 Xposition Yposition Zposition Zrotation Xrotation Yrotation
                      End Site
                      {
                        OFFSET 0.2358 -1.9176 -0.0906
                      }
                    }
                  }
                }
                JOINT RightFinger4
                {
                  OFFSET 0.6151 -8.0947 -3.564
                  CHANNELS 6 Xposition Yposition Zposition Zrotation Xrotation Yrotation
                  JOINT RightFinger41
                  {
                    OFFSET 0.4882 -2.341 -0.6462
                    CHANNELS 6 Xposition Yposition Zposition Zrotation Xrotation Yrotation
                    JOINT RightFinger42
                    {
                      OFFSET 0.3574 -1.7166 -0.4742
                      CHANNELS 6 Xposition Yposition Zposition Zrotation Xrotation Yrotation
                      End Site
                      {
                        OFFSET 0.4187 -1.5237 -0.3496
                      }
                    }
                  }
                }
                JOINT RightFinger0
                {
                  OFFSET 1.4199 -1.8761 1.4221
                  CHANNELS 6 Xposition Yposition Zposition Zrotation Xrotation Yrotation
                  JOINT RightFinger01
                  {
                    OFFSET 1.1472 -3.4929 2.6336
                    CHANNELS 6 Xposition Yposition Zposition Zrotation Xrotation Yrotation
                    JOINT RightFinger02
                    {
                      OFFSET 0.8229 -2.3 1.6571
                      CHANNELS 6 Xposition Yposition Zposition Zrotation Xrotation Yrotation
                      End Site
                      {
                        OFFSET 0.5822 -1.6914 1.1582
                      }
                    }
                  }
                }
              }
            }
          }
        }
      }
    }
  }
  JOINT RightHip
  {
    OFFSET -9.412 3.9771 -0.7758
    CHANNELS 6 Xposition Yposition Zposition Zrotation Xrotation Yrotation
    JOINT RightKnee
    {
      OFFSET -0.7531 -40.938 0
      CHANNELS 6 Xposition Yposition Zposition Zrotation Xrotation Yrotation
      JOINT RightAnkle
      {
        OFFSET 0 -40.1986 0
        CHANNELS 6 Xposition Yposition Zposition Zrotation Xrotation Yrotation
        JOINT RightToe
        {
          OFFSET 0 -4.4182 9.239
          CHANNELS 6 Xposition Yposition Zposition Zrotation Xrotation Yrotation
          End Site
          {
            OFFSET 0 0 6.1981
          }
        }
      }
    }
  }
  JOINT LeftHip
  {
    OFFSET 9.4119 3.9773 -0.7758
    CHANNELS 6 Xposition Yposition Zposition Zrotation Xrotation Yrotation
    JOINT LeftKnee
    {
      OFFSET 0.7532 -40.9383 0
      CHANNELS 6 Xposition Yposition Zposition Zrotation Xrotation Yrotation
      JOINT LeftAnkle
      {
        OFFSET 0 -40.1986 0
        CHANNELS 6 Xposition Yposition Zposition Zrotation Xrotation Yrotation
        JOINT LeftToe
        {
          OFFSET 0 -4.4182 9.239
          CHANNELS 6 Xposition Yposition Zposition Zrotation Xrotation Yrotation
          End Site
          {
            OFFSET 0 0 6.1981
          }
        }
      }
    }
  }
}
MOTION
Frames:	4
Frame Time:	0.0333333
-6.92159 5.07252 17.9224 -90.0106 -72.2369 -0.0107911 0 8.7983 -4.7612 0.132253 -4.99879 0.0889521 -8.88178e-016 8.0291 0.4195 0.273881 -9.99733 0.190641 8.88178e-016 9.9351 -2.2114 0.273901 -9.99739 0.190643 -8.88178e-016 22.3885 -0.4656 -22.3843 -22.9512 -9.89981 -0.0001 12.643 3.4389 33.09 14.8002 -8.30305 2.2603 21.606 7.4023 -10.2259 8.10612 -11.5176 13.5163 -1.1332 -5.0146 64.6613 -50.6971 32.8322 -0.0995 -28.05 -0.2431 -67.7853 -2.02458 -0.433911 0.0679 -23.3996 -0.1402 -33.2 -2.67847 -4.16388 0.7932 -9.069 2.5189 7.95139e-016 3.18055e-015 9.54166e-015 -0.8272 -3.3923 0.5977 -7.95139e-016 3.18055e-015 6.36111e-015 -0.5649 -2.3158 0.4082 0 0 -0 0.9159 -9.2044 0.2193 7.95139e-016 3.18055e-015 9.54166e-015 0.0117 -4.1944 -0.0248 -0.0128375 0.00232829 8.67494e-005 0.0071 -2.3249 -0.0142 -7.95139e-016 6.36111e-015 -0 0.6113 -8.7231 -2.0637 7.95139e-016 3.18055e-015 9.54166e-015 -0.1927 -3.8059 -0.2383 -0.016043 0.00299286 0.000860107 -0.1091 -2.1688 -0.1362 -3.18055e-015 3.18055e-015 -3.18055e-015 -0.6151 -8.0947 -3.5641 7.95139e-016 3.18055e-015 9.54166e-015 -0.4882 -2.341 -0.6462 -0.0125909 0.0031246 0.00283221 -0.3575 -1.7167 -0.4742 7.95139e-016 0 3.18055e-015 -1.42 -1.8761 1.4223 7.95139e-016 3.18055e-015 9.54166e-015 -1.1471 -3.4929 2.6334 -7.95139e-016 3.18055e-015 6.36111e-015 -0.823 -2.3 1.6571 0 0 -0 -2.2603 21.606 7.4023 -14.5121 1.7768 -15.1408 -13.5187 -1.1334 -5.0155 -21.3523 -45.8518 2.89307 0.0994 -28.0499 -0.2431 82.0147 -58.4754 16.8806 -0.0679 -23.3996 -0.1402 47.7056 -3.90253 -6.83455 -0.7932 -9.0691 2.5189 3.57146e-007 5.06801e-007 4.18051e-007 0.8272 -3.3923 0.5977 1.2424e-017 0 1.49089e-016 0.565 -2.3158 0.4082 4.47266e-016 3.18055e-015 2.48481e-016 -0.916 -9.2044 0.2193 3.57146e-007 5.06801e-007 4.18051e-007 -0.0117 -4.1944 -0.0248 0.0129455 0.00230905 -8.77382e-005 -0.0071 -2.3249 -0.0142 6.21202e-017 3.18055e-015 4.96962e-016 -0.6113 -8.7231 -2.0637 3.57146e-007 5.06801e-007 4.18051e-007 0.1927 -3.8059 -0.2383 0.0163504 0.00303135 -0.000874497 0.1091 -2.1688 -0.1362 4.72114e-016 -6.36111e-015 -9.93923e-017 0.6151 -8.0947 -3.564 3.57146e-007 5.06801e-007 4.18051e-007 0.4882 -2.341 -0.6462 0.0145833 0.00367148 -0.00326083 0.3574 -1.7166 -0.4742 -4.96962e-017 0 5.96354e-016 1.4199 -1.8761 1.4221 3.57146e-007 5.06801e-007 4.18051e-007 1.1472 -3.4929 2.6336 1.2424e-017 0 1.49089e-016 0.8229 -2.3 1.6571 4.47266e-016 3.18055e-015 2.48481e-016 -9.412 3.9771 -0.7758 -24.3142 -50.7716 -29.6612 -0.7531 -40.938 -1.77636e-015 82.3686 27.092 -99.3914 1.77636e-015 -40.1986 0 -4.03526 22.1604 8.38695 -1.77636e-015 -4.4182 9.239 3.5146e-006 1.23637e-006 -2.96476e-006 9.4119 3.9773 -0.7758 11.4946 -54.8321 17.0018 0.7532 -40.9383 1.77636e-015 -3.96921 44.765 0.234675 0 -40.1986 0 3.11523 43.5168 -2.37637 0 -4.4182 9.239 6.50599e-007 -1.52432e-006 -5.45839e-007 
-7.04803 5.07342 17.8828 -90.0103 -71.9997 -0.0105705 8.88179e-016 8.7983 -4.7612 0.127651 -5.07091 0.0943881 0 8.0291 0.4195 0.265254 -10.1416 0.201326 -8.88178e-016 9.9351 -2.2114 0.265252 -10.1416 0.20133 8.88179e-016 22.3885 -0.4656 -22.7902 -22.8161 -10.0614 -0.0001 12.643 3.4389 33.2297 14.8095 -8.33861 2.2603 21.606 7.4023 -10.2543 8.33225 -11.5359 13.5163 -1.1332 -5.0146 64.6367 -50.6347 32.802 -0.0995 -28.05 -0.2431 -67.6389 -1.99643 -0.422151 0.0679 -23.3996 -0.1402 -33.2 -2.67846 -4.16389 0.7932 -9.069 2.5189 1.59028e-015 0 3.18055e-015 -0.8272 -3.3923 0.5977 2.38542e-015 -3.18055e-015 -3.18055e-015 -0.5649 -2.3158 0.4082 2.38542e-015 0 -0 0.915901 -9.2044 0.2193 1.59028e-015 0 3.18055e-015 0.0117 -4.1944 -0.0248 -0.0127953 0.00232228 8.79452e-005 0.0071 -2.3249 -0.0142 -2.38542e-015 3.18055e-015 -3.18055e-015 0.6113 -8.7231 -2.0637 1.59028e-015 0 3.18055e-015 -0.1927 -3.8059 -0.2383 -0.0160543 0.00299372 0.000863155 -0.1091 -2.1688 -0.1362 -1.59028e-015 3.18055e-015 6.36111e-015 -0.6151 -8.0947 -3.5641 1.59028e-015 0 3.18055e-015 -0.4882 -2.341 -0.6462 -0.0126159 0.00313249 0.00283108 -0.3575 -1.7167 -0.4742 4.34002e-006 -2.27578e-008 2.93762e-006 -1.42 -1.8761 1.4223 1.59028e-015 0 3.18055e-015 -1.1471 -3.4929 2.6334 2.38542e-015 -3.18055e-015 -3.18055e-015 -0.823 -2.3 1.6571 2.38542e-015 0 -0 -2.2603 21.606 7.4023 -14.4855 1.96198 -15.2273 -13.5187 -1.1334 -5.0155 -21.2513 -45.8512 2.97818 0.0994 -28.0499 -0.2431 82.0844 -58.4495 16.9426 -0.0679 -23.3996 -0.1402 47.7321 -3.88613 -6.77943 -0.7932 -9.0691 2.5189 2.36057e-016 0 -2.48481e-016 0.8272 -3.3923 0.5977 6.4605e-016 0 4.96962e-017 0.565 -2.3158 0.4082 1.00635e-015 0 -0 -0.916 -9.2044 0.2193 2.36057e-016 0 -2.48481e-016 -0.0117 -4.1944 -0.0248 0.012943 0.00231691 -8.77324e-005 -0.0071 -2.3249 -0.0142 -3.97569e-016 -6.36111e-015 -9.93923e-017 -0.6113 -8.7231 -2.0637 2.36057e-016 0 -2.48481e-016 0.1927 -3.8059 -0.2383 0.0163448 0.00303899 -0.000874259 0.1091 -2.1688 -0.1362 9.69075e-016 6.36111e-015 -9.93923e-017 0.6151 -8.0947 -3.564 2.36057e-016 0 -2.48481e-016 0.4882 -2.341 -0.6462 0.0145563 0.00367674 -0.00325746 0.3574 -1.7166 -0.4742 -3.35449e-016 6.36111e-015 9.93923e-017 1.4199 -1.8761 1.4221 2.36057e-016 0 -2.48481e-016 1.1472 -3.4929 2.6336 6.4605e-016 0 4.96962e-017 0.8229 -2.3 1.6571 1.00635e-015 0 -0 -9.412 3.9771 -0.7758 -24.457 -50.9822 -29.9215 -0.7531 -40.938 -1.77636e-015 82.2321 27.0673 -99.3363 1.77636e-015 -40.1986 0 -4.16988 22.2553 8.40201 1.77636e-015 -4.4182 9.239 -4.37326e-015 1.59028e-015 -3.18055e-015 9.4119 3.9773 -0.7758 11.5738 -55.0523 17.0767 0.7532 -40.9383 -3.55271e-015 -4.04566 44.5903 0.28586 0 -40.1986 -3.55271e-015 3.14878 43.681 -2.37749 -8.88179e-016 -4.4182 9.239 -1.25595e-007 -1.21458e-006 -2.02354e-006 
-6.92159 5.07252 17.9224 -90.0106 -72.2369 -0.0107911 0 8.7983 -4.7612 0.132253 -4.99879 0.0889521 -8.88178e-016 8.0291 0.4195 0.273881 -9.99733 0.190641 8.88178e-016 9.9351 -2.2114 0.273901 -9.99739 0.190643 -8.88178e-016 22.3885 -0.4656 -22.3843 -22.9512 -9.89981 -0.0001 12.643 3.4389 33.09 14.8002 -8.30307 2.2603 21.606 7.4023 -10.2259 8.10613 -11.5176 13.5163 -1.1332 -5.0146 64.6613 -50.6971 32.8322 -0.0995 -28.05 -0.2431 -67.7853 -2.02458 -0.433942 0.0679 -23.3996 -0.1402 -33.2 -2.67848 -4.16384 0.7932 -9.069 2.5189 5.27238e-007 -4.45514e-007 -1.51747e-006 -0.8272 -3.3923 0.5977 -1.05934e-030 9.54166e-015 6.36111e-015 -0.5649 -2.3158 0.4082 -7.95139e-016 6.36111e-015 3.18055e-015 0.9159 -9.2044 0.2193 5.27238e-007 -4.45514e-007 -1.51747e-006 0.0117 -4.1944 -0.0248 -0.0128419 0.00233469 8.16418e-005 0.0071 -2.3249 -0.0142 7.95139e-016 -6.36111e-015 -3.18055e-015 0.6113 -8.7231 -2.0637 5.27238e-007 -4.45514e-007 -1.51747e-006 -0.1927 -3.8059 -0.2383 -0.0160516 0.00300017 0.000857274 -0.1091 -2.1688 -0.1362 -3.97569e-015 -3.18055e-015 3.18055e-015 -0.6151 -8.0947 -3.5641 5.27238e-007 -4.45514e-007 -1.51747e-006 -0.4882 -2.341 -0.6462 -0.0125915 0.00312988 0.00283174 -0.3575 -1.7167 -0.4742 -7.95139e-016 1.59028e-014 -0 -1.42 -1.8761 1.4223 5.27238e-007 -4.45514e-007 -1.51747e-006 -1.1471 -3.4929 2.6334 -1.05934e-030 9.54166e-015 6.36111e-015 -0.823 -2.3 1.6571 -7.95139e-016 6.36111e-015 3.18055e-015 -2.2603 21.606 7.4023 -14.5121 1.77679 -15.1408 -13.5187 -1.1334 -5.0155 -21.3522 -45.8518 2.89313 0.0994 -28.0499 -0.2431 82.0145 -58.4754 16.8806 -0.0679 -23.3996 -0.1402 47.7056 -3.90253 -6.83454 -0.7932 -9.0691 2.5189 -3.60297e-016 9.54166e-015 3.47873e-016 0.8272 -3.3923 0.5977 -6.33626e-016 9.54166e-015 3.47873e-016 0.565 -2.3158 0.4082 -9.06955e-016 6.36111e-015 4.96962e-016 -0.916 -9.2044 0.2193 -3.60297e-016 9.54166e-015 3.47873e-016 -0.0117 -4.1944 -0.0248 0.0129491 0.00231653 -8.50323e-005 -0.0071 -2.3249 -0.0142 1.2424e-017 0 3.47873e-016 -0.6113 -8.7231 -2.0637 -3.60297e-016 9.54166e-015 3.47873e-016 0.1927 -3.8059 -0.2383 0.0163443 0.00303247 -0.000876152 0.1091 -2.1688 -0.1362 -2.35933e-014 -3.18055e-015 7.55382e-015 0.6151 -8.0947 -3.564 -3.60297e-016 9.54166e-015 3.47873e-016 0.4882 -2.341 -0.6462 0.0145734 0.00367128 -0.003261 0.3574 -1.7166 -0.4742 -2.40157e-014 -9.54166e-015 7.35503e-015 1.4199 -1.8761 1.4221 -3.60297e-016 9.54166e-015 3.47873e-016 1.1472 -3.4929 2.6336 -6.33626e-016 9.54166e-015 3.47873e-016 0.8229 -2.3 1.6571 -9.06955e-016 6.36111e-015 4.96962e-016 -9.412 3.9771 -0.7758 -24.3142 -50.7716 -29.6613 -0.7531 -40.938 -1.77636e-015 82.3686 27.092 -99.3914 0 -40.1986 0 -4.03528 22.1604 8.38696 0 -4.4182 9.239 -3.57812e-015 1.8297e-006 -9.54166e-015 9.4119 3.9773 -0.7758 11.4946 -54.8321 17.0018 0.7532 -40.9383 -1.77636e-015 -3.96917 44.765 0.234639 1.77636e-015 -40.1986 0 3.11524 43.5168 -2.3764 0 -4.4182 9.239 -1.14449e-005 -2.13067e-006 -3.76813e-006 
-6.64352 5.07061 18.0089 -90.0112 -72.759 -0.0113148 1.77636e-015 8.7983 -4.7612 0.142581 -4.83997 0.0771784 8.88178e-016 8.0291 0.4195 0.293347 -9.67966 0.167372 -8.88179e-016 9.9351 -2.2114 0.293341 -9.67971 0.167379 0 22.3885 -0.4656 -21.488 -23.2471 -9.54186 -0.0001 12.643 3.4389 32.7827 14.7797 -8.22493 2.2603 21.606 7.4023 -10.1631 7.60865 -11.4769 13.5163 -1.1332 -5.0146 64.7156 -50.8351 32.8987 -0.0995 -28.05 -0.2431 -68.1071 -2.08639 -0.459368 0.0679 -23.3996 -0.1402 -33.2 -2.67848 -4.16383 0.7932 -9.069 2.5189 2.38542e-015 3.18055e-015 -3.18055e-015 -0.8272 -3.3923 0.5977 3.18055e-015 3.18055e-015 -3.18055e-015 -0.5649 -2.3158 0.4082 3.18055e-015 0 -0 0.9159 -9.2044 0.2193 2.38542e-015 3.18055e-015 -3.18055e-015 0.0117 -4.1944 -0.0248 -0.0128579 0.00233221 8.34101e-005 0.0071 -2.3249 -0.0142 3.53113e-031 -6.36111e-015 3.18055e-015 0.6113 -8.7231 -2.0637 2.38542e-015 3.18055e-015 -3.18055e-015 -0.1927 -3.8059 -0.2383 -0.0160688 0.00299879 0.000857519 -0.1091 -2.1688 -0.1362 2.38542e-015 -3.18055e-015 1.27222e-014 -0.6151 -8.0947 -3.5641 2.38542e-015 3.18055e-015 -3.18055e-015 -0.4882 -2.341 -0.6462 -0.0126027 0.00312921 0.00283345 -0.3575 -1.7167 -0.4742 0 0 -6.36111e-015 -1.42 -1.8761 1.4223 2.38542e-015 3.18055e-015 -3.18055e-015 -1.1471 -3.4929 2.6334 3.18055e-015 3.18055e-015 -3.18055e-015 -0.823 -2.3 1.6571 3.18055e-015 0 -0 -2.2603 21.606 7.4023 -14.5691 1.36881 -14.9509 -13.5187 -1.1334 -5.0155 -21.5759 -45.8526 2.70494 0.0994 -28.0499 -0.2431 81.8628 -58.5324 16.7449 -0.0679 -23.3996 -0.1402 47.6472 -3.93859 -6.9558 -0.7932 -9.0691 2.5189 -9.06955e-016 0 2.98177e-016 0.8272 -3.3923 0.5977 -6.61812e-006 -1.56044e-006 9.89616e-007 0.565 -2.3158 0.4082 8.82107e-016 3.18055e-015 1.49089e-016 -0.916 -9.2044 0.2193 -9.06955e-016 0 2.98177e-016 -0.0117 -4.1944 -0.0248 0.0129775 0.00231478 -8.53418e-005 -0.0071 -2.3249 -0.0142 -1.98785e-016 -3.18055e-015 2.98177e-016 -0.6113 -8.7231 -2.0637 -9.06955e-016 0 2.98177e-016 0.1927 -3.8059 -0.2383 0.0162929 0.00302838 -0.000871057 0.1091 -2.1688 -0.1362 8.50607e-007 -3.77952e-006 1.96909e-006 0.6151 -8.0947 -3.564 -9.06955e-016 0 2.98177e-016 0.4882 -2.341 -0.6462 0.014574 0.00367703 -0.00326059 0.3574 -1.7166 -0.4742 -2.35187e-014 -3.18055e-015 7.70291e-015 1.4199 -1.8761 1.4221 -9.06955e-016 0 2.98177e-016 1.1472 -3.4929 2.6336 -6.61812e-006 -1.56044e-006 9.89616e-007 0.8229 -2.3 1.6571 8.82107e-016 3.18055e-015 1.49089e-016 -9.412 3.9771 -0.7758 -24.0106 -50.3052 -29.0985 -0.7531 -40.938 -1.77636e-015 82.6691 27.1461 -99.5129 -5.32907e-015 -40.1986 7.10543e-015 -3.7391 21.9516 8.35366 -1.77636e-015 -4.4182 9.239 1.59028e-015 -2.38542e-015 -0 9.4119 3.9773 -0.7758 11.3205 -54.3504 16.8383 0.7532 -40.9383 1.77636e-015 -3.79852 45.1521 0.12278 -1.77636e-015 -40.1986 -3.55271e-015 3.04309 43.1549 -2.37485 -8.88178e-016 -4.4182 9.239 -4.43654e-007 -1.13582e-006 -1.85615e-006 
